<?xml version="1.0" encoding="utf-8"?>
<!-- Generator: Adobe Illustrator 24.3.0, SVG Export Plug-In . SVG Version: 6.00 Build 0)  -->
<svg version="1.0" id="圖層_1" xmlns="http://www.w3.org/2000/svg" xmlns:xlink="http://www.w3.org/1999/xlink" x="0px" y="0px"
	 viewBox="0 0 1738.4 139.4" style="enable-background:new 0 0 1738.4 139.4;" xml:space="preserve">
<style type="text/css">
	.st0{fill:#333333;}
</style>
<g>
	<path class="st0" d="M93,120.9c-1-5.8-1.7-8.9-2.9-13.1l-3.3-10.3H52.3l-3.3,10.3c-1.6,4.8-2.4,8.6-3,13.1H17.7
		c1.8-3.6,2.9-6.5,5.8-14.8l26.1-72.8c2.2-5.9,3.3-9.6,3.9-13.1h31.6c0.8,3.5,1.7,6.7,4.1,13.1l26.2,72.8c2.3,6.4,4.2,11.4,5.8,14.8
		H93z M69.4,40.9L58.1,77.2h22.7L69.4,40.9z"/>
	<path class="st0" d="M159.2,20.2c-0.7,5-1,9.1-1,17.9V103c0,8.3,0.2,12.8,1,17.9h-26.6c0.7-4.7,1-9.8,1-17.9V38.1
		c0-9.1-0.2-12.6-1-17.9H159.2z"/>
	<path class="st0" d="M255,106c-3.3,5.1-5.8,9.3-8.8,14.9h-32c6.5-8,8.9-11.1,12.5-16l26.6-37.4l-22.6-31.8
		c-3.7-5.4-7.4-10.2-11.9-15.5h31.3c1.9,4.5,4.6,9.3,8.9,16l9.2,14l9.1-14.1c4.8-7.6,6.9-11.2,8.8-15.8h31.1
		c-4.4,5.4-7.3,9.2-11.5,15.2L283,67.4l26.7,37.5c3.9,5.4,7.3,9.8,12.3,16h-32c-2.3-4.4-4.6-8.5-8.7-14.9l-13.2-20.4L255,106z"/>
	<path class="st0" d="M373.7,31.7c2.9,0.5,5.3,0.6,9.8,0.6h27c5,0,7.1-0.1,9.8-0.4v16.1c-2.7-0.4-3.5-0.4-9.6-0.4h-27.2
		c-4.4,0-7,0.1-9.8,0.5V31.7z M421.2,62c2.7,0.4,4,0.5,7.6,0.5c-3-2.8-7.5-6.3-10.8-8.5v11.2c-2.2-0.2-3.3-0.2-7-0.2h-26.2
		c-3.7,0-5.2,0-7.3,0.2V51.6c2.3,0.2,3.5,0.2,7.3,0.2H411c3.7,0,4.7,0,6.7-0.2c3.5-2.8,5-4.7,6.5-7.9c2.2-4.6,3.3-11.4,3.3-21.2
		c0-3-0.1-4.4-0.5-7.1c3.3,0.4,5.7,0.5,9.6,0.5H459c4.1,0,6.5-0.1,10-0.5c-0.2,2.5-0.4,5.1-0.4,8.9v16.9c0,1.2,0.5,1.5,2.4,1.5
		c3.1,0,3.3-0.2,3.5-13.4c4.8,2.5,8,3.7,13.8,5.4c-1.1,20.9-3.1,23.8-16.8,23.8c-10.3,0-13.7-0.4-16.2-1.7c-2.3-1.1-3-2.9-3-7.3
		V32.6h-8.2c-0.5,13.8-3.6,21.9-11.1,29.9h32.7c4.4,0,6.4-0.1,8-0.4l8.5,8.2c-0.8,1.7-0.8,1.7-2.4,5.7c-4.7,11-9.1,18.7-14.4,25
		c7,3.5,13.9,5.7,23.3,7.4c-3.7,6.9-5.7,11.4-8,18.1c-12.9-3.7-21.2-7.1-29.5-12.5c-7.5,5.2-13.9,8.3-25.4,12.5
		c-2.5-5.4-4.2-8.6-7.5-13.1v2.3c0,5,0,6.2,0.4,8.8h-16.6v-3.3h-8.3v5h-17.3c0.4-4.1,0.6-8.1,0.6-12V95c0-3.6-0.1-5.8-0.5-9.1
		c2.9,0.2,5,0.4,8.9,0.4h25.6c4.2,0,5.4,0,7.4-0.4c-0.2,2.2-0.2,3.7-0.2,8v15.2c6.5-1.7,12.6-4,18.4-7.3c-3.6-3.7-4.1-4.4-13.3-16.2
		l13.2-6.7h-5.4c-4.6,0-6.9,0.1-9.9,0.5V62z M377.3,14.6c3.6,0.4,5.3,0.5,11,0.5H407c5.7,0,7.4-0.1,11-0.5v14.1
		c-3.6-0.2-5.8-0.4-11-0.4h-18.7c-4.8,0-7.7,0.1-11,0.4V14.6z M377.5,68.7c2.1,0.2,3.4,0.2,7.3,0.2H411c4,0,5.1,0,7-0.2v13.7
		c-2.3-0.2-3.3-0.2-7.3-0.2h-26.2c-3.6,0-5,0-7,0.2V68.7z M393.4,107.2h8.7v-7.9h-8.7V107.2z M440,79c5.1,6.9,6.9,9.1,10.4,12.2
		c3.6-3.9,5.6-6.7,8.6-12.2H440z"/>
	<path class="st0" d="M550.5,48.9c-1.9-0.1-4.1-0.2-8.8-0.2h-33.3c-4.1,0-6.8,0.1-9.9,0.5V32.8c2.9,0.5,5.4,0.6,9.9,0.6h33.3
		c4.8,0,7.1-0.1,9.9-0.5v15c3.1,0.4,8.2,0.6,14.3,0.6h5.3V29.2c0-7.9-0.1-10.8-0.7-15.5h20.4c-0.6,4.4-0.7,7.6-0.7,15.5v19.3h5.7
		c6.7,0,10.8-0.2,14.9-0.7v18.9c-5.4-0.5-9.7-0.7-15-0.7h-5.6v42.2c0,8.8,0.2,14.1,0.8,19.2h-20.7c0.6-4.5,0.8-10.3,0.8-19.2V66
		h-5.2c-5.3,0-10.8,0.2-15.5,0.7V48.9z M520,127.4h-17.8c0.4-3.1,0.5-6.9,0.5-11.5V96.1c0-3.6-0.1-5.8-0.5-8.9
		c2.7,0.2,3.4,0.2,8.7,0.2h29.8c3.9,0,5.3-0.1,7.4-0.4c-0.2,2.5-0.4,5.3-0.4,8.9v18.9c0,5,0.1,8.1,0.5,10.9h-17.7v-3.1H520V127.4z
		 M502.8,15.7c3.5,0.4,5.4,0.5,11.1,0.5h22.3c5.6,0,7.6-0.1,11-0.5v14.1c-3-0.2-5.9-0.4-11-0.4h-22.3c-5.1,0-8,0.1-11.1,0.4V15.7z
		 M503.1,52.4c2.5,0.2,3.4,0.2,7.3,0.2h29.9c3.9,0,5,0,6.9-0.2v13.8c-2.2-0.2-3.3-0.2-6.9-0.2h-29.9c-3.6,0-5.3,0.1-7.3,0.2V52.4z
		 M503.1,69.7c2.1,0.1,3.6,0.2,7.3,0.2h29.7c3.7,0,4.8,0,7-0.2v13.8c-2.3-0.2-3.3-0.2-7.3-0.2h-29.7c-3.7,0-4.5,0-7,0.2V69.7z
		 M519.5,108.2h11.1v-7.4h-11.1V108.2z"/>
	<path class="st0" d="M721.1,46.2c7.5,0,9.6-0.1,13.8-0.7V63c-4-0.4-5.9-0.5-13.8-0.5h-4.6c0.2,3.9,0.4,5.4,1,12.9
		c2.3-4.6,2.9-5.9,4.1-10l12.8,8.3c-1.3,2.7-2.3,4.4-3.7,7.7c-1.6,3.3-6,11.5-8.9,16.1c2.5,6.2,2.5,6.3,3.6,7.5
		c1-2.2,1.3-5.9,1.6-12.6c3.6,3.5,6.4,5.4,10.9,8c-1,10-2.1,15-3.9,18.7c-1.9,4-5.2,6.2-9.1,6.2c-5.1,0-10.5-4.5-15-12.2
		c-4.8,5.6-8.6,8.8-16.1,14.5c-2.8-5.1-5-8.2-8.1-11.7h-8.9v6.3H662c0.4-3.4,0.5-6.2,0.5-10v-36c0-5.4,0-6.5-0.4-10
		c1.7,0.2,2.8,0.2,7,0.2h21.2c2.9,0,4.6-0.1,7.3-0.2c-0.2,2.3-0.2,3.7-0.2,10v27.2c2.8-2.8,4.2-4.5,6.7-7.3
		c-2.2-10-2.8-15.2-3.7-33.6h-35.9c-2.5,0-3.7,0-5.7,0.1v51.3c0,7.1,0.1,9.8,0.6,13.2h-16.3c0.5-3.7,0.6-7.4,0.6-13.3v-6.2
		c-6.2,2.1-7.1,2.4-17.3,5.3c-1.9,0.6-2.3,0.7-3.7,1.3l-3.3-18.4c1.1,0,2.1-0.1,5.2-0.7v-62c-1.7,0.1-2.2,0.1-4,0.4V15.6
		c3.1,0.6,5.8,0.7,11.9,0.7h17.3c6.2,0,8.7-0.1,12.1-0.6v6.5c1.8,0.2,3.7,0.4,6,0.4h4.5c0-5.2-0.1-6.2-0.6-9.2h17.7
		c-0.4,3-0.5,4.2-0.5,9.2h10.8v-2.3c0-3.5,0-3.9-0.4-6.5h17.3c-0.5,3.5-0.6,5.6-0.6,9.6l11.4-5.7c4.2,7.7,6,12,8.2,19.5L722.8,44
		c-2.1-8.8-3.6-13.1-7.1-19.6c0,1.1,0,2.3,0,2.7c0,1.3,0,4.4,0.1,9.1c0,2.2,0,5.6,0.1,10H721.1z M639.1,42.4h5V33h-5V42.4z
		 M639.1,66.1h5v-8.8h-5V66.1z M639.1,92c2.7-0.6,3.3-0.8,5-1.3V81h-5V92z M665.1,46.2c-0.5-3.7-1.2-7.3-1.8-9.6
		c-1.1,0.1-1.3,0.1-2.4,0.2v-3.7c-1.1-0.1-1.2-0.1-2.3-0.1v13.2c1.6,0,2.2,0,5.2,0H665.1z M676.6,85h7.4v-5.3h-7.4V85z M676.6,101.9
		h7.4v-5.7h-7.4V101.9z M681.6,46.2c0.7-3.3,1.1-6.3,1.5-9.7h-6.3c0.4,2.4,0.8,5.8,1.2,9.7H681.6z M699.6,46.2c0-3,0-3,0-9.7h-3.6
		c-0.5,3.1-1.1,6.5-1.8,9.7H699.6z"/>
	<path class="st0" d="M811.9,14.5c-0.5,2.2-0.7,5.4-0.7,9.8c0,13.1,1.9,26.8,5,35.7c4.2,12.6,12.2,24.4,22.7,33.7
		c6.7,5.9,12.1,9.4,21.2,13.8c-5.7,6.5-8.1,10.3-12.3,19.1c-13.2-8.1-21.8-15.4-29.5-24.9c-7.3-8.7-12-17.5-16.3-30.1
		c-5.2,15.8-10.4,25-19.8,34.8c-7.6,8-15.4,14-26,20.1c-3.9-8-5.8-10.8-12.3-17.8c17.9-8.9,27.9-17.9,35.3-31
		c7.6-13.4,11.5-31.4,11.5-53.8c0-4-0.1-6.4-0.6-9.4H811.9z"/>
	<path class="st0" d="M1010.6,63.6c-5.2,0-8,0.1-11.7,0.5V50.2c3.5,0.4,6.2,0.5,11.7,0.5h12.1c-1.2-2.7-1.7-3.5-3-5.8H1009
		c-5.8,0-10.9,0.2-15,0.6V29.4c3.9,0.5,7,0.7,13.5,0.7c-1.8-3.6-3.1-5.6-6.5-9.7l17.2-5.8c3.3,5.3,4.5,7.7,8,15.5h3.5v-7.9
		c0-3.4-0.2-6.3-0.6-8.7h18.1c-0.2,2.1-0.4,4.4-0.4,7.9v8.7h5v-8.7c0-3.4-0.1-5.6-0.5-7.9h18.1c-0.4,2.1-0.5,5.1-0.5,8.7v7.9h3.6
		c3.9-6.3,5.6-9.7,7.7-15.6l17.2,5.9c-2.4,4.2-3.9,6.5-6,9.7c7.3,0,9.9-0.2,13.9-0.7v16.1c-4.1-0.4-9.3-0.6-15.1-0.6h-10
		c-1.5,3.1-1.8,3.6-2.9,5.8h11.4c5.4,0,8.2-0.1,11.9-0.5v13.9c-3.9-0.4-6.5-0.5-11.9-0.5h-30.8v3.7h25.8c5.1,0,8.2-0.1,11.9-0.5
		v12.8c-3.5-0.4-6.8-0.5-11.9-0.5h-25.8V83h31.4c7,0,12-0.2,15.5-0.7v15.2c-5.1-0.5-9.4-0.7-15.4-0.7h-18.6
		c8.2,6.2,20,10.3,36.8,12.8c-4.6,6.8-6.4,10.2-9.1,17.2c-18.1-5.1-30.7-11.7-41-21.8c0.2,3.3,0.4,3.9,0.4,6.9v3.9
		c0,5.1,0.1,8.6,0.6,11.9h-19.2c0.6-3.7,0.8-7.1,0.8-12V112c0-3,0-3.4,0.1-6.8c-6.3,5.9-9.8,8.6-16.3,12.2c-7,3.9-13.7,6.7-22.5,9.3
		c-2.7-6.4-5.1-10.5-9.8-16.4c16.1-2.8,27.2-7,35.8-13.5h-16.9c-6,0-10.8,0.2-15.6,0.7V82.2c4.2,0.5,8.9,0.7,15.5,0.7h29.5v-3.7
		h-24.2c-5.1,0-8.3,0.1-11.7,0.5V66.9c3.4,0.4,6.5,0.5,11.7,0.5h24.2v-3.7H1010.6z M1057.9,50.7c1.2-2.5,1.6-3.4,2.5-5.8h-21.5
		c1.3,3,1.7,4,2.3,5.8H1057.9z"/>
	<path class="st0" d="M1142.3,111.3c-6.9,0-8.2,0-12.2,0.2c0.4-2.9,0.5-6,0.5-11.7V81.7c0-5.7-0.1-8.7-0.5-11.9
		c3.9,0.2,4.8,0.2,12,0.2h63.5c7.3,0,8.1,0,11.9-0.2c-0.2,3-0.4,6.8-0.4,13.1v15.7c0,7.9,0,10.6,0.5,12.9c-4-0.2-5.3-0.2-12.2-0.2
		h-3.5c8,1.9,17.3,3,29.6,3.6c-4.8,5-7,7.6-10.4,13.3c-18.1-2.7-27.8-5.4-41.4-11.9l10-5.1h-32l9.8,4.7
		c-13.5,7.3-21.9,9.8-40.3,12.3c-3.1-5.1-5.1-7.5-10.3-12.8c12.7-0.7,21.5-1.9,29.1-4.2H1142.3z M1218.8,41.2
		c-0.5,3.1-0.5,3.1-0.6,4.2c6.4,0,8.3-0.1,12.2-0.6v12.8c-3.7-0.4-6.7-0.6-12.6-0.6h-1.5c-0.2,1.8-0.5,2.5-0.6,3.7
		c-0.8,3.6-1,4.6-1.1,6.8c-5.3-0.2-9.1-0.4-12.3-0.4h-65.9c-3.9,0-7,0.1-9.8,0.4c1.9-4.8,2.5-6.7,3.6-10.5h-0.8
		c-5.4,0-8.1,0.2-11.1,0.6V44.8c3,0.5,5.7,0.6,11.5,0.6h3.1c0.2-1.8,0.4-2.4,0.6-4.4H1119c0.5-2.7,0.6-4.7,0.6-10v-4.4
		c0-3.3-0.1-5.2-0.5-8c4.1,0.4,6.9,0.5,14.1,0.5h30.6c-0.1-2.7-0.2-4.5-0.6-6.4h19.7c-0.4,2.1-0.5,3.6-0.5,6.4h32.2
		c7.6,0,10.3-0.1,13.9-0.5c-0.4,2.4-0.4,3.7-0.4,8.1v5c0,4.4,0.1,6.9,0.6,9.4H1218.8z M1210.4,32.2h-73v2.9c1.9,0.1,3.5,0.1,5.8,0.1
		h64.1c2.2,0,2.2,0,3.1,0V32.2z M1148.7,55.8c-0.4,1.3-0.5,1.8-0.8,3.3h15.4c0.2-1.1,0.4-1.6,0.8-3.3H1148.7z M1198.9,81.4v-3.1
		h-50.7v3.1H1198.9z M1198.9,91.7v-3h-50.7v3H1198.9z M1198.9,102v-3.1h-50.7v3.1H1198.9z M1165.8,46.9c0.1-1.3,0.1-1.3,0.4-3.1
		h-15.2c-0.1,1.5-0.1,1.5-0.4,3.1H1165.8z M1181,55.8c-0.4,1.6-0.5,2.1-0.7,3.3h16.8c0.4-1.5,0.5-1.9,0.7-3.3H1181z M1183,43.7
		c-0.2,1.6-0.2,1.6-0.5,3.1h16.9c0.1-1.2,0.2-1.7,0.4-3.1H1183z"/>
	<path class="st0" d="M1353.2,71.7c-1.1,1.8-1.1,1.8-5.2,8.8c-3.6,6-7.3,11.5-11.5,17.1c1.9,5,3.6,8,4.5,8c1,0,2.2-5,3.3-14.1
		c4.1,4.1,7.4,6.7,12.1,9.4c-2.1,12.8-4.1,18.7-7.9,23c-2.3,2.7-4.6,3.7-7.5,3.7c-5.8,0-11.9-5.4-17.3-15.6
		c-7,6.5-11.9,10.3-19.3,14.9c-3.5-5.8-6.3-9.3-11.4-14c2.1-1.1,2.9-1.6,4.4-2.3c-2.4-0.1-3.5-0.1-5.1-0.1h-8.8v6.9
		c0,3.6,0.2,6.9,0.6,10.4h-18.4c0.5-3,0.7-6.5,0.7-10.4v-6.9h-12c-5.9,0-9.9,0.2-13.9,0.7V93.5c4,0.4,8,0.6,13.5,0.6h12.3v-3.7h-11
		c-4.1,0-6.9,0.1-10.8,0.5c0.4-3.7,0.4-4.7,0.4-10.2V57.6c0-5.6,0-6.9-0.4-10.3c2.9,0.4,4.6,0.4,11.1,0.4h38.2c6.8,0,8.3,0,11.2-0.4
		c-0.4,3-0.5,5.2-0.5,10.4v22.9c0,4.1,0.1,6.7,0.5,10c-2.4-0.2-4.2-0.2-9.7-0.2h-12.1v3.7h9.1c5.8,0,9.6-0.1,13.7-0.6v11.1
		c4.6-3.5,7.6-6.2,11.4-9.9c-2.1-8.2-3.4-17.9-4.5-31.8c-2.7,0.4-3.1,0.4-5.2,0.8l-1.2-17.9c1.5,0.1,2.1,0.1,3,0.1
		c0.4,0,0.4,0,2.4,0c-0.4-7.7-0.4-7.7-0.6-24.4c-0.1-3.6-0.2-5.9-0.6-8.1h19c-0.5,2.3-0.6,3.6-0.6,8l11.6-5.4
		c5.3,7.1,8.2,12,12.5,20.3l-13.9,7c-3.5-7.9-6.2-12.8-10.2-18.5c0,5,0.1,11.6,0.2,19.8l11.9-1c5.8-0.4,8-0.7,11.5-1.5l1,17.3
		c-3.1,0.1-7.5,0.5-10.9,0.7l-12.8,1.2c0.5,6.4,0.7,9.6,1.6,15.4c3.4-5.8,5.2-9.8,6.3-13.8L1353.2,71.7z M1242,23.6
		c0-3.4-0.1-5.8-0.4-9.2c2.9,0.4,5.9,0.5,10.5,0.5h10.2c5.1,0,8.2-0.1,10.8-0.5c-0.2,3.1-0.2,4-0.2,9.2V36c0,5.3,0,6.8,0.2,8.9
		c-3-0.2-5.6-0.4-8.9-0.4h-13.5c-3.6,0-5.1,0.1-8.8,0.4c0.2-3,0.2-4.2,0.2-8.9V23.6z M1254.7,32.9h5.9V27h-5.9V32.9z M1259.5,59.9v4
		h7.3v-4H1259.5z M1259.5,74.1v4.1h7.3v-4.1H1259.5z M1275.8,23.6c0-3.1-0.1-6-0.4-9.2c3.3,0.4,5.8,0.5,10.5,0.5h10.6
		c5,0,7.9-0.1,10.8-0.5c-0.2,2.4-0.2,4.2-0.2,9.1V36c0,5.2,0,6.8,0.2,8.9c-3.3-0.2-5.3-0.4-8.9-0.4h-13.9c-3.3,0-5.7,0.1-8.9,0.4
		c0.2-2.7,0.2-4.5,0.2-8.9V23.6z M1283.1,63.8h6.9v-4h-6.9V63.8z M1283.1,78.2h6.9v-4.1h-6.9V78.2z M1288.7,32.9h5.9V27h-5.9V32.9z"
		/>
	<path class="st0" d="M1388.7,40.3c-7.5,0-11.7,0.1-17.3,0.7V21.5c4.4,0.5,9.4,0.7,17.5,0.7h65.8c8,0,12-0.1,17.3-0.7V41
		c-5.8-0.6-9.8-0.7-17.2-0.7h-24.2v60.2h28.5c7.7,0,12.7-0.2,18.5-0.8v20c-5.2-0.6-11.4-0.8-18.6-0.8H1384c-7,0-12.3,0.2-18.5,0.8
		v-20c6,0.6,10.6,0.8,18.9,0.8h26.5V40.3H1388.7z"/>
	<path class="st0" d="M1548.7,52.1c-5.7,10.2-10.8,17.1-17.7,24.7c-3.5-6.8-5.7-10.2-10.6-16.3v52.2c0,5.9,0.2,10.4,0.7,15.4h-19.6
		c0.5-4.5,0.7-8.6,0.7-15.2V84.1c0-1,0-1.8,0-4.4c0.1-4,0.1-4,0.2-8.2c-2.8,3.5-5.2,6.3-8.3,9.3c-2.1-9.6-3.9-14.6-7.5-22
		c8.1-6.7,15.2-17.2,20.9-30.7c2.5-5.9,4.1-11,4.7-15.5l18.9,5.8c-1.1,2.7-1.3,3.3-2.5,6.9c-2.4,7-4.2,11.4-8.2,19.5v14.3
		c7-7,11.7-13.8,16.1-22.9c4.5-9.2,7.4-17.5,8.2-23l19.3,4.4c-1.2,3.1-1.7,4.4-2.5,6.7c-1.2,3.5-1.6,4.4-2.4,6.4h27.5
		c7.1,0,11.9-0.2,15.4-0.7v18c-3.9-0.5-9.4-0.7-15.2-0.7H1567v11.2h17.1c5.7,0,9.3-0.1,13.2-0.6v17.7c-4.5-0.4-8.7-0.6-13.4-0.6
		H1567v11.2h16.9c5.7,0,9.2-0.1,13.4-0.6v17.8c-4.8-0.5-8.6-0.6-13.4-0.6H1567v9.3c0,8.6,0.2,13.1,0.7,16.4h-19.8
		c0.5-3.9,0.7-8.1,0.7-16.3V52.1z"/>
	<path class="st0" d="M1666,46.9c-3.4,0-5.2,0-9.9,0.2v12.9c-2.7-0.4-5.2-0.5-8.3-0.5h-2.2v25c3.9-1.5,5.2-1.9,10.4-4l0.1,17.2
		c-12.8,5.9-19.7,8.7-32,12.8c-2.8,0.8-4.4,1.5-7,2.7l-4-19.8c3.1-0.2,3.7-0.4,14.6-3.3V59.6h-2.1c-4.4,0-7.4,0.1-11.4,0.6V42.3
		c3.1,0.5,6,0.6,11.2,0.6h2.2V29.3c0-7.1-0.2-10.5-0.7-14.5h19.3c-0.6,3.9-0.7,7.1-0.7,14.5v13.7h2.2c1.5,0,2.2,0,3.9,0V29
		c4.7,0.5,8.9,0.7,15.6,0.7h9.8v-7c0-4-0.2-6.8-0.6-9.3h20c-0.5,2.3-0.7,5.1-0.7,9.3v7h14c7.5,0,12.5-0.2,16.1-0.7v18.6
		c-4.4-0.5-8.6-0.7-15.2-0.7h-24.8c-0.2,6.3-0.2,7.9-0.5,12.2h24.3c6.2,0,8.7-0.1,11.2-0.5c-0.4,2.9-0.4,4.7-0.5,11
		c-0.1,13.8-1.3,30.6-2.9,39.3c-2.3,13.1-7.4,16.7-23.6,16.7c-2.3,0-2.3,0-10-0.2c-0.5-7.1-1.3-11.2-3.7-18.3c4.5,0.6,8.9,1,12.9,1
		c4.5,0,5.7-0.8,6.5-4.6c1.5-6.2,1.9-13.9,2.1-27.8h-18.1c-2.1,12.8-4.8,21.8-9.9,30.8c-4.5,8.2-9.8,14-19.3,21.2
		c-4.7-5.7-8-9.1-14.1-14.3c12.8-8.3,18.7-15.7,22.7-28.3c3-9.2,4.2-19.5,4.6-38.2H1666z"/>
	<path class="st0" d="M919.9,9.5h15.9v7.4H981v12.7H964l3.4,6.8c-4.6,1.5-9.2,3-13.8,4.6c5,1.5,9.8,3.1,14.3,4.9l-4.9,7.4h17.5v13.5
		h-87.9v16.3c0,9-1.4,18.2-4.1,27.5c-2.3,7.7-5.3,14.7-8.9,21l-13.1-9.5c3.3-5.4,6.1-11.6,8.3-18.5c1.8-6.7,2.8-13.5,2.8-20.5V53.3
		h13.9l-3.5-9.1c6.6-1,13-2.1,19.3-3.3c-5.9-1.4-11.9-2.7-18.1-3.9l3.5-7.4H878V16.9h41.9V9.5z M906.4,68l12.6,4.1
		c-0.5,1.7-1.1,3.3-1.7,4.9h15.2V69h14.9v7.9h29.3v13h-29.3v6.4h26.3V109h-26.3v6.8H981v13h-87.9v-13h39.4V109h-30.4V96.4h30.4v-6.4
		h-22.1c-1.1,1.9-2.3,3.7-3.5,5.3L894.3,88C899.5,82.1,903.6,75.4,906.4,68z M931.4,47.2c-8.9,2.1-18.1,4.1-27.6,6h46.8
		C944.5,51.1,938.1,49.1,931.4,47.2z M932.7,35c6.3-1.8,12.5-3.5,18.5-5.4h-41.4C917.8,31.3,925.4,33.1,932.7,35z"/>
</g>
</svg>
